<?xml version="1.0" encoding="UTF-8"?><svg id="Capa_2" xmlns="http://www.w3.org/2000/svg" viewBox="0 0 55.35 55.76"><defs><style>.cls-1{fill:#c9a043;}</style></defs><g id="Capa_1-2"><g><path class="cls-1" d="m7.98,50.11c.78-.73,1.28-1.77,1.28-2.92,0-2.2-1.79-3.99-3.99-3.99s-3.99,1.79-3.99,3.99c0,1.15.49,2.19,1.28,2.92-.36.19-.69.42-.99.7-1.02.96-1.56,2.38-1.56,4.1,0,.47.38.86.86.86s.86-.38.86-.86c0-1.12.35-3.72,3.55-3.72s3.55,2.6,3.55,3.72c0,.47.38.86.86.86s.86-.38.86-.86c0-1.72-.54-3.14-1.56-4.1-.29-.28-.63-.51-.99-.7Zm-5-2.92c0-1.26,1.02-2.28,2.28-2.28s2.28,1.02,2.28,2.28-1.02,2.28-2.28,2.28-2.28-1.02-2.28-2.28Z"/><path class="cls-1" d="m13.46,43.08c.29.37.83.44,1.2.16.37-.29.44-.83.16-1.2-.37-.49-.8-.89-1.26-1.21.89-.73,1.46-1.84,1.46-3.08,0-2.2-1.79-3.99-3.99-3.99s-3.99,1.79-3.99,3.99c0,1.24.57,2.35,1.46,3.08-.47.32-.9.74-1.28,1.24-.29.38-.21.91.16,1.2.16.12.34.17.52.17.26,0,.51-.12.68-.34.67-.88,1.54-1.37,2.46-1.37s1.77.48,2.44,1.34Zm-4.72-5.34c0-1.26,1.02-2.28,2.28-2.28s2.28,1.02,2.28,2.28-1.02,2.28-2.28,2.28-2.28-1.02-2.28-2.28Z"/><path class="cls-1" d="m24.66,43.08c.29.37.83.44,1.2.16.37-.29.44-.83.16-1.2-.37-.49-.8-.89-1.26-1.21.89-.73,1.46-1.84,1.46-3.08,0-2.2-1.79-3.99-3.99-3.99s-3.99,1.79-3.99,3.99c0,1.24.57,2.35,1.46,3.08-.47.32-.9.74-1.28,1.24-.29.38-.21.91.16,1.2.16.12.34.17.52.17.26,0,.51-.12.68-.34.67-.88,1.54-1.37,2.46-1.37s1.77.48,2.44,1.34Zm-4.72-5.34c0-1.26,1.02-2.28,2.28-2.28s2.28,1.02,2.28,2.28-1.02,2.28-2.28,2.28-2.28-1.02-2.28-2.28Z"/><path class="cls-1" d="m35.85,43.08c.29.37.83.44,1.2.16.37-.29.44-.83.16-1.2-.37-.49-.8-.89-1.26-1.21.89-.73,1.46-1.84,1.46-3.08,0-2.2-1.79-3.99-3.99-3.99s-3.99,1.79-3.99,3.99c0,1.24.57,2.35,1.46,3.08-.47.32-.9.74-1.28,1.24-.29.38-.21.91.16,1.2.16.12.34.17.52.17.26,0,.51-.12.68-.34.67-.88,1.54-1.37,2.46-1.37s1.77.48,2.44,1.34Zm-4.72-5.34c0-1.26,1.02-2.28,2.28-2.28s2.28,1.02,2.28,2.28-1.02,2.28-2.28,2.28-2.28-1.02-2.28-2.28Z"/><path class="cls-1" d="m47.04,43.08c.29.37.83.44,1.2.16.37-.29.44-.83.16-1.2-.37-.49-.8-.89-1.26-1.21.89-.73,1.46-1.84,1.46-3.08,0-2.2-1.79-3.99-3.99-3.99s-3.99,1.79-3.99,3.99c0,1.24.57,2.35,1.46,3.08-.47.32-.9.74-1.28,1.24-.29.38-.21.91.16,1.2.16.12.34.17.52.17.26,0,.51-.12.68-.34.67-.88,1.54-1.37,2.46-1.37s1.77.48,2.44,1.34Zm-4.72-5.34c0-1.26,1.02-2.28,2.28-2.28s2.28,1.02,2.28,2.28-1.02,2.28-2.28,2.28-2.28-1.02-2.28-2.28Z"/><path class="cls-1" d="m19.19,50.11c.78-.73,1.28-1.77,1.28-2.92,0-2.2-1.79-3.99-3.99-3.99s-3.99,1.79-3.99,3.99c0,1.15.49,2.19,1.28,2.92-.36.19-.69.42-.99.7-1.02.96-1.56,2.38-1.56,4.1,0,.47.38.86.86.86s.86-.38.86-.86c0-1.12.35-3.72,3.55-3.72s3.55,2.6,3.55,3.72c0,.47.38.86.86.86s.86-.38.86-.86c0-1.72-.54-3.14-1.56-4.1-.29-.28-.63-.51-.99-.7Zm-5-2.92c0-1.26,1.02-2.28,2.28-2.28s2.28,1.02,2.28,2.28-1.02,2.28-2.28,2.28-2.28-1.02-2.28-2.28Z"/><path class="cls-1" d="m30.39,50.11c.78-.73,1.28-1.77,1.28-2.92,0-2.2-1.79-3.99-3.99-3.99s-3.99,1.79-3.99,3.99c0,1.15.49,2.19,1.28,2.92-.36.19-.69.42-.99.7-1.02.96-1.56,2.38-1.56,4.1,0,.47.38.86.86.86s.86-.38.86-.86c0-1.12.35-3.72,3.55-3.72s3.55,2.6,3.55,3.72c0,.47.38.86.86.86s.86-.38.86-.86c0-1.72-.54-3.14-1.56-4.1-.29-.28-.63-.51-.99-.7Zm-5-2.92c0-1.26,1.02-2.28,2.28-2.28s2.28,1.02,2.28,2.28-1.02,2.28-2.28,2.28-2.28-1.02-2.28-2.28Z"/><path class="cls-1" d="m41.6,50.11c.78-.73,1.28-1.77,1.28-2.92,0-2.2-1.79-3.99-3.99-3.99s-3.99,1.79-3.99,3.99c0,1.15.49,2.19,1.28,2.92-.36.19-.69.42-.99.7-1.02.96-1.56,2.38-1.56,4.1,0,.47.38.86.86.86s.86-.38.86-.86c0-1.12.35-3.72,3.55-3.72s3.55,2.6,3.55,3.72c0,.47.38.86.86.86s.86-.38.86-.86c0-1.72-.54-3.14-1.56-4.1-.29-.28-.63-.51-.99-.7Zm-5-2.92c0-1.26,1.02-2.28,2.28-2.28s2.28,1.02,2.28,2.28-1.02,2.28-2.28,2.28-2.28-1.02-2.28-2.28Z"/><path class="cls-1" d="m53.79,50.81c-.29-.28-.63-.51-.99-.7.78-.73,1.28-1.77,1.28-2.92,0-2.2-1.79-3.99-3.99-3.99s-3.99,1.79-3.99,3.99c0,1.15.49,2.19,1.28,2.92-.36.19-.69.42-.99.7-1.02.96-1.56,2.38-1.56,4.1,0,.47.38.86.86.86s.86-.38.86-.86c0-1.12.35-3.72,3.55-3.72s3.55,2.6,3.55,3.72c0,.47.38.86.86.86s.86-.38.86-.86c0-1.72-.54-3.14-1.56-4.1Zm-5.98-3.62c0-1.26,1.02-2.28,2.28-2.28s2.28,1.02,2.28,2.28-1.02,2.28-2.28,2.28-2.28-1.02-2.28-2.28Z"/><path class="cls-1" d="m9.89,29.47h14.13l3.32,5.37c.15.25.43.4.72.41,0,0,0,0,.01,0,.29,0,.56-.15.72-.39l3.52-5.39h14.25c2.37,0,4.3-1.93,4.3-4.3V4.31c0-2.37-1.93-4.31-4.31-4.31H9.83c-2.38,0-4.31,1.93-4.31,4.31v20.79c0,2.41,1.96,4.38,4.38,4.38ZM7.23,4.31c0-1.43,1.16-2.6,2.6-2.6h36.74c1.43,0,2.59,1.16,2.59,2.59v20.87c0,1.43-1.16,2.59-2.59,2.59h-14.72c-.29,0-.56.15-.72.39l-3.04,4.65-2.86-4.63c-.16-.25-.43-.41-.73-.41h-14.61c-1.47,0-2.66-1.19-2.66-2.66V4.31Z"/><path class="cls-1" d="m20.6,24.59s.02,0,.02,0l2.21-.04c.64,0,1.19-.45,1.38-1.05.56-.05,1.45-.09,2.14.04.62.11,1.27.16,1.94.16h6.27c1.55,0,2.81-1.26,2.81-2.81v-7.14c0-.75-.29-1.45-.82-1.98-.53-.53-1.23-.82-1.98-.82h-2.5c.49-.71.97-1.63,1.14-2.68.11-.71.19-1.44.23-2.19.03-.67-.21-1.33-.67-1.82-.47-.49-1.1-.76-1.78-.76-1.19,0-2.21.85-2.42,2.03-.3,1.68-.82,2.89-1.42,3.32-.36.25-.64.42-.9.56-.55.32-1.07.62-1.24,1.39-.17.75-.51,1.66-1.2,2.14-.27-.32-.67-.52-1.11-.52,0,0-.01,0-.02,0l-2.21.04c-.4,0-.79.18-1.06.49-.26.29-.4.67-.39,1.06l.11,9.07c.01.84.67,1.51,1.48,1.51Zm6.08-13.41s0,0,0-.01c.06-.06.26-.17.42-.27.26-.15.61-.35,1.03-.65,1.01-.72,1.72-2.2,2.11-4.42.06-.36.37-.61.73-.61.2,0,.39.08.53.23.14.15.21.34.2.55-.03.69-.1,1.36-.21,2-.28,1.74-1.87,3.15-1.88,3.16-.23.2-.34.51-.28.81v3.02c0,1.36-.81,2.57-2.06,3.09l-.55.23c-.44.18-.64.68-.46,1.12.14.33.46.53.79.53.11,0,.22-.02.33-.07l.55-.23c1.89-.79,3.12-2.62,3.12-4.67v-2.32h3.5c.29,0,.57.11.77.32.21.21.32.48.32.77v7.14c0,.6-.49,1.09-1.09,1.09h-6.27c-.57,0-1.12-.05-1.64-.14-.79-.14-1.72-.12-2.38-.07l-.08-7.08c1.23-.54,2.11-1.77,2.49-3.52Zm-4.21,2.96l.1,8.7-1.73.03-.1-8.7,1.73-.03Z"/></g></g></svg>