<?xml version="1.0" encoding="UTF-8"?><svg id="Capa_2" xmlns="http://www.w3.org/2000/svg" viewBox="0 0 57.51 56.05"><defs><style>.cls-1{fill:#c9a043;}</style></defs><g id="Capa_1-2"><g><path class="cls-1" d="m39.11,39.09l-9.34,3.02-11.32-3.37c-1.34-.53-2.9-.54-2.97-.54h-2.75c-4.49,0-8.14,3.65-8.14,8.14v8.8c0,.5.41.91.91.91s.91-.41.91-.91v-8.8c0-3.48,2.83-6.32,6.32-6.32h2.75s1.32,0,2.33.42c.03.01.05.02.08.03l11.63,3.47c.18.05.37.05.54,0l9.6-3.11c1.25-.4,2.6.28,3,1.54.2.61.14,1.25-.14,1.82-.29.57-.78.99-1.39,1.18l-10.57,3.42c-.24.08-.48.12-.73.12-.2,0-.35-.02-.6-.1l-6.91-2.06c-.28-.08-.57-.03-.8.14-.23.17-.37.44-.37.73v7.53c0,.5.41.91.91.91s.91-.41.91-.91v-6.31l5.74,1.71c.41.12.74.17,1.11.17.43,0,.87-.07,1.29-.2l10.57-3.42c1.07-.35,1.94-1.09,2.45-2.09.51-1,.6-2.14.26-3.21-.71-2.21-3.09-3.42-5.3-2.71Z"/><path class="cls-1" d="m42.83,0H14.68C6.59,0,0,6.59,0,14.68v2.29c0,2.59.68,5.13,1.97,7.35,1.23,2.12,2.98,3.91,5.07,5.18.48,3.71,3.66,6.58,7.49,6.58,3.09,0,5.74-1.86,6.92-4.51.1.04.21.06.32.06h3.16v3.23c0,.34.19.65.49.81.13.07.28.1.42.1.18,0,.36-.05.52-.16l5.72-3.96h10.74c8.1,0,14.68-6.59,14.68-14.68v-2.29c0-8.1-6.59-14.68-14.68-14.68ZM14.54,34.27c-3.16,0-5.74-2.57-5.74-5.74s2.57-5.74,5.74-5.74,5.74,2.57,5.74,5.74-2.57,5.74-5.74,5.74Zm41.15-17.3c0,7.09-5.77,12.86-12.86,12.86h-11.03c-.19,0-.37.06-.52.16l-4.53,3.13v-2.4c0-.5-.41-.91-.91-.91h-3.86c.07-.42.11-.85.11-1.28,0-4.17-3.39-7.56-7.56-7.56-3.76,0-6.89,2.76-7.46,6.36-1.43-1.05-2.63-2.38-3.52-3.92-1.13-1.95-1.73-4.17-1.73-6.44v-2.29C1.82,7.59,7.59,1.82,14.68,1.82h28.15c7.09,0,12.86,5.77,12.86,12.86v2.29Z"/><path class="cls-1" d="m44.95,7.74h-3.83c-.5,0-.91.41-.91.91s.41.91.91.91h1.64l-8.39,8.14-5.78-6.51c-.19-.21-.46-.32-.75-.3-.28.02-.54.17-.7.41l-4.27,6.45-5.88-3.98c-.3-.2-.69-.21-1-.01l-4.26,2.72c-.42.27-.55.83-.28,1.26.27.42.83.55,1.26.28l3.76-2.4,6.15,4.16c.15.1.33.16.51.16.06,0,.12,0,.18-.02.24-.05.45-.19.58-.39l4.13-6.23,5.63,6.33c.17.19.4.3.65.31.25,0,.49-.08.67-.26l9.08-8.81v1.73c0,.5.41.91.91.91s.91-.41.91-.91v-3.95c0-.5-.41-.91-.91-.91Z"/></g></g></svg>