<?xml version="1.0" encoding="UTF-8"?><svg id="Capa_2" xmlns="http://www.w3.org/2000/svg" viewBox="0 0 14.05 31.04"><defs><style>.cls-1{fill:#c9a043;}</style></defs><g id="Capa_1-2"><path class="cls-1" d="m8.36,31.04H3.76c-.29-.18-.37-.43-.37-.77,0-4.17,0-8.34,0-12.51v-.36c-.92,0-1.8,0-2.67,0-.54,0-.72-.18-.72-.73,0-1.3,0-2.6,0-3.91,0-.54.17-.71.7-.71.79,0,1.57,0,2.36,0,.11,0,.21,0,.33-.02,0-1.14,0-2.24,0-3.34,0-1.44.27-2.81.94-4.09C5.47,2.47,7.19,1.05,9.51.34,10.82-.06,12.18,0,13.53.01c.34,0,.52.24.52.61,0,1.36,0,2.73,0,4.09,0,.44-.19.63-.63.63-.47,0-.95,0-1.42,0-1.92,0-3.27,1.36-3.27,3.28,0,1.03,0,2.06,0,3.09,0,.1.01.2.02.33h4.01c.61,0,.76.15.76.77,0,1.28,0,2.56,0,3.85,0,.55-.17.73-.72.73-1.24,0-2.48,0-3.72,0h-.34v.4c0,4.16,0,8.32,0,12.48,0,.33-.07.59-.38.76"/></g></svg>