<?xml version="1.0" encoding="UTF-8"?><svg id="Capa_2" xmlns="http://www.w3.org/2000/svg" viewBox="0 0 63.05 56.67"><defs><style>.cls-1{fill:#c9a043;}</style></defs><g id="Capa_1-2"><g><path class="cls-1" d="m51.18,27.61c-.32.05-.65.1-.97.11-.16,0-.33-.03-.49-.05v22.15c0,2.8-2.27,5.07-5.07,5.07h-2.79v-14.02c0-3.03-2.47-5.5-5.5-5.5h-9.27c-3.03,0-5.5,2.47-5.5,5.5v14.02h-3.67c-2.52,0-4.57-2.05-4.57-4.57v-22.71l.34-.24s.04-.04.06-.07c-.67.03-1.34,0-2-.14-.04.03-.08.07-.13.1-.02.01-.04.03-.06.04v23.03c0,3.5,2.85,6.34,6.34,6.34h5.45v-15.8c0-2.05,1.67-3.72,3.72-3.72h9.27c2.05,0,3.72,1.67,3.72,3.72v15.8h4.57c3.78,0,6.85-3.07,6.85-6.85v-20.55l.07.07v-1.75c-.13,0-.25,0-.38.02Z"/><path class="cls-1" d="m35.78,42.34c-1.05-.56-2.27-.24-3,.66-.41.51-.77,1.04-1.11,1.6-.52-1.12-1.2-2.32-2.26-2.95-.88-.52-1.97-.52-2.79.12-.92.71-.68,1.98-.54,3,.2,1.49.6,2.91,1.22,4.28.61,1.36,1.66,2.51,3.1,2.99,1.5.5,3.13-.04,4.14-1.23.91-1.09,1.5-2.43,1.99-3.75.27-.72.53-1.47.57-2.25.05-.99-.44-2.01-1.33-2.48m-8.14,2.24s-.05-.03-.08-.06c0,0,.04.03.08.06"/><path class="cls-1" d="m4.22,35.39c-.85,0-1.71-.33-2.36-.98l-.88-.88c-1.3-1.3-1.3-3.42,0-4.72L28.85.94c.69-.69,1.66-1.02,2.67-.92,1.02-.1,1.99.23,2.67.92l27.88,27.88c1.3,1.3,1.3,3.42,0,4.72l-.88.88c-1.26,1.26-3.46,1.26-4.72,0L31.53,9.46,6.58,34.41c-.65.65-1.51.98-2.36.98ZM31.17,1.78c-.31,0-.72.08-1.06.42L2.23,30.07c-.61.61-.61,1.6,0,2.21l.88.88c.61.61,1.6.61,2.21,0L31.53,6.95l26.21,26.21c.58.59,1.62.59,2.21,0l.88-.88c.29-.29.45-.68.45-1.1s-.16-.81-.45-1.1L32.94,2.19c-.44-.44-1.01-.44-1.3-.4h-.11s-.11,0-.11,0c-.07,0-.15-.02-.24-.02Z"/></g></g></svg>