<?xml version="1.0" encoding="UTF-8"?><svg id="Capa_2" xmlns="http://www.w3.org/2000/svg" viewBox="0 0 33.4 31.88"><defs><style>.cls-1{fill:#c9a043;}</style></defs><g id="Capa_1-2"><g><path class="cls-1" d="m23.1,31.88h-12.8c-5.68,0-10.3-4.62-10.3-10.3v-11.28C0,4.62,4.62,0,10.3,0h12.8c5.68,0,10.3,4.62,10.3,10.3v11.28c0,5.68-4.62,10.3-10.3,10.3M10.3,2.29C5.88,2.29,2.29,5.88,2.29,10.3v11.28c0,4.42,3.59,8.01,8.01,8.01h12.8c4.42,0,8.01-3.59,8.01-8.01v-11.28c0-4.42-3.59-8.01-8.01-8.01h-12.8Z"/><path class="cls-1" d="m16.7,25.11c-5.06,0-9.17-4.11-9.17-9.17s4.11-9.17,9.17-9.17,9.17,4.11,9.17,9.17-4.11,9.17-9.17,9.17m0-16.05c-3.79,0-6.88,3.09-6.88,6.88s3.09,6.88,6.88,6.88,6.88-3.09,6.88-6.88-3.09-6.88-6.88-6.88"/><path class="cls-1" d="m27.63,7.05c0,1.05-.85,1.9-1.9,1.9s-1.9-.85-1.9-1.9.85-1.9,1.9-1.9,1.9.85,1.9,1.9"/></g></g></svg>