<?xml version="1.0" encoding="UTF-8"?><svg id="Capa_2" xmlns="http://www.w3.org/2000/svg" viewBox="0 0 27.26 31.3"><defs><style>.cls-1{fill:#c9a043;}</style></defs><g id="Capa_1-2"><g id="Z3jucZ.tif"><g><path class="cls-1" d="m11.15,11.57C4.3,10.95-.86,16.36.12,23.04c.71,4.9,5.09,8.41,10.3,8.26,4.75-.13,9.05-4.11,9.31-8.88.2-3.62.09-7.25.12-10.88,0-.32,0-.64,0-1.1,2.35,1.49,4.72,2.38,7.41,2.3v-5.17c-4.76-.39-7.32-3.73-7.57-7.56h-5.31c0,.36,0,.69,0,1.02,0,6.84.01,13.67-.01,20.51,0,2.12-1.51,3.87-3.62,4.34-1.98.44-4.07-.6-5.01-2.49-.92-1.83-.42-4.12,1.17-5.47,1.25-1.06,2.7-1.19,4.26-.92v-5.41Z"/><path class="cls-1" d="m11.15,11.57v5.41c-1.57-.27-3.01-.14-4.26.92-1.59,1.35-2.09,3.64-1.17,5.47.94,1.89,3.04,2.93,5.01,2.49,2.11-.47,3.61-2.22,3.62-4.34.02-6.84.01-13.67.01-20.51,0-.33,0-.66,0-1.02h5.31c.26,3.84,2.81,7.18,7.57,7.56v5.17c-2.69.09-5.06-.8-7.41-2.3,0,.46,0,.78,0,1.1-.03,3.63.08,7.26-.12,10.88-.27,4.77-4.57,8.75-9.31,8.88-5.21.15-9.58-3.36-10.3-8.26-.97-6.67,4.18-12.08,11.04-11.47Z"/></g></g></g></svg>