<?xml version="1.0" encoding="UTF-8"?><svg id="Capa_2" xmlns="http://www.w3.org/2000/svg" xmlns:xlink="http://www.w3.org/1999/xlink" viewBox="0 0 80.87 99.46"><defs><style>.cls-1,.cls-2{fill:none;}.cls-3{clip-path:url(#clippath);}.cls-4{fill:#004b91;}.cls-5{fill:#fff;}.cls-2{stroke:#ffac00;stroke-miterlimit:10;stroke-width:1px;}</style><clipPath id="clippath"><path class="cls-1" d="M4.81,40.14c0,19.52,15.82,35.34,35.34,35.34s35.34-15.82,35.34-35.34S59.66,4.81,40.14,4.81,4.81,20.63,4.81,40.14"/></clipPath></defs><g id="Capa_1-2"><g><g class="cls-3"><path class="cls-4" d="M44.87,76.81h-8.37C16.62,76.81,.5,60.69,.5,40.81H.5C.5,20.92,16.62,4.81,36.5,4.81h8.37c19.88,0,36,16.12,36,36h0c0,19.88-16.12,36-36,36"/></g><path class="cls-2" d="M79.79,40.14c0,21.9-17.75,39.65-39.65,39.65S.5,62.04,.5,40.14,18.25,.5,40.14,.5s39.65,17.75,39.65,39.65Z"/><g><path d="M19.38,99.4l3.83-8.39h.88l3.83,8.39h-.93l-3.52-7.87h.36l-3.52,7.87h-.92Zm1.51-2.24l.26-.72h4.88l.26,.72h-5.4Z"/><path d="M31.63,99.46c-.54,0-1-.1-1.4-.3-.4-.2-.71-.5-.93-.9-.22-.4-.33-.9-.33-1.5v-3.65h.85v3.56c0,.67,.17,1.18,.5,1.52,.33,.34,.8,.51,1.4,.51,.44,0,.82-.09,1.14-.27,.32-.18,.57-.44,.74-.79s.26-.75,.26-1.23v-3.29h.85v6.29h-.81v-1.73l.13,.31c-.2,.46-.51,.83-.93,1.08-.42,.26-.91,.39-1.47,.39Z"/><path d="M39.58,99.46c-.6,0-1.14-.14-1.61-.41-.48-.27-.85-.65-1.12-1.13s-.41-1.04-.41-1.67,.14-1.2,.41-1.68c.27-.48,.65-.85,1.12-1.12,.48-.27,1.01-.4,1.61-.4,.55,0,1.04,.12,1.48,.37,.44,.25,.78,.61,1.04,1.08s.39,1.06,.39,1.74-.13,1.26-.38,1.74c-.26,.48-.6,.84-1.04,1.1-.44,.25-.93,.38-1.49,.38Zm.06-.75c.45,0,.85-.1,1.2-.3,.35-.2,.63-.49,.84-.86,.2-.37,.31-.8,.31-1.29s-.1-.93-.31-1.29c-.2-.37-.48-.65-.84-.86-.36-.2-.76-.31-1.2-.31s-.83,.1-1.19,.31c-.35,.2-.63,.49-.84,.86-.21,.37-.31,.8-.31,1.29s.1,.92,.31,1.29c.21,.37,.49,.66,.84,.86,.35,.2,.75,.3,1.19,.3Zm2.37,.7v-1.89l.08-1.27-.12-1.27v-4.46h.85v8.89h-.81Z"/><path d="M45.63,91.72c-.18,0-.32-.06-.44-.18-.12-.12-.18-.26-.18-.43s.06-.31,.18-.43c.12-.12,.27-.17,.44-.17s.32,.06,.44,.17c.12,.11,.18,.25,.18,.42,0,.18-.06,.32-.17,.44-.12,.12-.27,.18-.45,.18Zm-.43,7.68v-6.29h.85v6.29h-.85Z"/><path d="M50.99,99.46c-.61,0-1.15-.14-1.64-.41s-.86-.66-1.14-1.14c-.28-.48-.42-1.04-.42-1.66s.14-1.19,.42-1.67c.28-.48,.66-.85,1.14-1.13,.48-.27,1.03-.41,1.64-.41s1.18,.14,1.66,.41c.48,.27,.86,.65,1.14,1.13,.28,.48,.41,1.03,.41,1.67s-.14,1.18-.41,1.66c-.28,.48-.66,.86-1.14,1.14s-1.04,.41-1.65,.41Zm0-.75c.46,0,.86-.1,1.21-.3,.35-.2,.63-.49,.83-.86,.2-.37,.31-.8,.31-1.29s-.1-.93-.31-1.29c-.2-.37-.48-.65-.83-.86-.35-.2-.75-.31-1.2-.31s-.85,.1-1.2,.31c-.35,.2-.63,.49-.84,.86-.21,.37-.31,.8-.31,1.29s.1,.92,.31,1.29c.21,.37,.49,.66,.84,.86,.35,.2,.75,.3,1.19,.3Z"/><path d="M57.63,99.46c-.52,0-1.01-.07-1.47-.22-.46-.15-.83-.33-1.09-.56l.38-.67c.26,.19,.58,.36,.98,.5s.82,.21,1.26,.21c.6,0,1.03-.09,1.29-.28,.26-.19,.4-.44,.4-.75,0-.23-.07-.41-.22-.54-.15-.13-.34-.23-.58-.3-.24-.07-.51-.13-.8-.17-.3-.05-.59-.1-.88-.17-.29-.06-.56-.16-.8-.28-.24-.12-.43-.29-.58-.51s-.22-.5-.22-.86,.1-.65,.29-.92c.19-.27,.47-.49,.84-.64,.37-.16,.82-.23,1.36-.23,.41,0,.81,.05,1.22,.16,.41,.11,.74,.25,1.01,.42l-.37,.68c-.28-.19-.58-.33-.9-.41-.32-.08-.64-.13-.96-.13-.57,0-.98,.1-1.25,.29-.27,.2-.4,.45-.4,.75,0,.24,.07,.43,.22,.56,.15,.14,.34,.24,.59,.32s.51,.14,.8,.19,.58,.11,.88,.17c.29,.07,.56,.16,.8,.28,.24,.12,.44,.28,.59,.49,.15,.21,.22,.49,.22,.83,0,.37-.1,.68-.31,.95-.2,.27-.5,.48-.89,.62-.39,.15-.86,.22-1.41,.22Z"/></g><g><path class="cls-5" d="M40.61,25.18c-.13-.22-.38-.35-.64-.33-.26,.02-.48,.18-.58,.42-2.26,5.4-5.93,10.13-10.6,13.66l-.87,.65-4.54,2.72c-2.15,1.28-2.85,4.07-1.56,6.22,.62,1.04,1.61,1.77,2.78,2.07,.37,.09,.74,.14,1.11,.14,.81,0,1.61-.22,2.32-.64l4.04-2.41,1.76,2.46c.76,1.06,1.7,1.97,2.78,2.7l.55,.37c.41,.27,.65,.71,.68,1.19,.03,.49-.18,.95-.55,1.26-.64,.54-1.58,.46-2.13-.17l-1.31-1.49c-.37-.43-.71-.89-1-1.38l-1.59-2.65c-.19-.32-.61-.43-.94-.24-.32,.19-.43,.61-.24,.94l1.59,2.65c.33,.56,.72,1.09,1.15,1.57l1.31,1.49c.58,.66,1.37,1,2.18,1,.65,0,1.31-.22,1.86-.68,.71-.59,1.09-1.46,1.04-2.38-.05-.92-.52-1.75-1.28-2.26l-.55-.37c-.95-.63-1.77-1.43-2.43-2.36l-1.65-2.3,.27-.12c5.32-2.44,11.22-3.44,17.05-2.87,.26,.03,.51-.1,.64-.31,.14-.22,.14-.5,0-.72l-10.66-17.83Zm-13.28,23.73c-.73,.43-1.58,.56-2.4,.35-.82-.21-1.51-.72-1.94-1.45-.9-1.5-.41-3.45,1.09-4.34l4.03-2.41,3.25,5.43-4.03,2.41Zm5.66-3.24l-.42,.19-3.33-5.57,.37-.28c4.51-3.41,8.12-7.88,10.5-13l9.3,15.56c-5.63-.33-11.28,.73-16.42,3.09Z"/><path class="cls-5" d="M27.32,42.23l-1.01,.6c-.32,.19-.43,.61-.24,.94,.13,.21,.35,.33,.59,.33,.12,0,.24-.03,.35-.1l1.01-.6c.32-.19,.43-.61,.24-.94-.19-.32-.61-.43-.94-.24Z"/><path class="cls-5" d="M36.83,35c-.31-.22-.73-.15-.95,.16-.07,.09-.13,.18-.2,.27-.22,.3-.16,.73,.14,.96,.12,.09,.27,.13,.41,.13,.21,0,.42-.1,.55-.28,.07-.1,.14-.19,.21-.29,.22-.31,.15-.73-.16-.95Z"/><path class="cls-5" d="M34.54,36.83c-1.07,1.2-2.29,2.27-3.62,3.19l-.08,.06c-.31,.21-.39,.64-.18,.95,.13,.19,.35,.3,.56,.3,.13,0,.27-.04,.39-.12l.08-.06c1.42-.97,2.72-2.12,3.86-3.4,.25-.28,.23-.71-.06-.97-.28-.25-.71-.23-.97,.06Z"/><path class="cls-5" d="M49.56,32.89c2.03-1.33,4.06-2.67,6.08-4,.56-.37,.04-1.28-.53-.91l-6.08,4c-.56,.37-.04,1.28,.53,.91h0Z"/><path class="cls-5" d="M48.56,30.62c1.47-2.31,2.93-4.62,4.4-6.93,.36-.57-.54-1.1-.91-.53-1.47,2.31-2.93,4.62-4.4,6.93-.36,.57,.54,1.1,.91,.53h0Z"/><path class="cls-5" d="M58.6,34.8c-2.74-.03-5.47-.07-8.21-.1-.67,0-.68,1.04,0,1.05,2.74,.03,5.47,.07,8.21,.1,.67,0,.68-1.04,0-1.05h0Z"/></g></g></g></svg>