<?xml version="1.0" encoding="UTF-8"?><svg id="Capa_2" xmlns="http://www.w3.org/2000/svg" viewBox="0 0 13.48 12.87"><defs><style>.cls-1{fill:#004a8d;}</style></defs><g id="Capa_1-2"><g><path class="cls-1" d="M9.33,12.87H4.16c-2.29,0-4.16-1.87-4.16-4.16V4.16C0,1.87,1.87,0,4.16,0h5.17c2.29,0,4.16,1.87,4.16,4.16v4.55c0,2.29-1.87,4.16-4.16,4.16M4.16,.92C2.37,.92,.92,2.37,.92,4.16v4.55c0,1.78,1.45,3.23,3.23,3.23h5.17c1.78,0,3.23-1.45,3.23-3.23V4.16c0-1.78-1.45-3.23-3.23-3.23H4.16Z"/><path class="cls-1" d="M6.74,10.14c-2.04,0-3.7-1.66-3.7-3.7s1.66-3.7,3.7-3.7,3.7,1.66,3.7,3.7-1.66,3.7-3.7,3.7m0-6.48c-1.53,0-2.78,1.25-2.78,2.78s1.25,2.78,2.78,2.78,2.78-1.25,2.78-2.78-1.25-2.78-2.78-2.78"/><path class="cls-1" d="M11.16,2.85c0,.42-.34,.77-.77,.77s-.77-.34-.77-.77,.34-.77,.77-.77,.77,.34,.77,.77"/></g></g></svg>