<?xml version="1.0" encoding="UTF-8"?><svg id="Capa_2" xmlns="http://www.w3.org/2000/svg" viewBox="0 0 22.34 22.34"><defs><style>.cls-1{fill:#fff;}.cls-2{fill:#154a89;}</style></defs><g id="Capa_1-2"><g><path class="cls-2" d="M22.34,11.17c0,6.17-5,11.17-11.17,11.17S0,17.34,0,11.17,5,0,11.17,0s11.17,5,11.17,11.17"/><path class="cls-1" d="M14.17,17.93h-5.43c-2.41,0-4.37-1.96-4.37-4.37v-4.78c0-2.41,1.96-4.37,4.37-4.37h5.43c2.41,0,4.37,1.96,4.37,4.37v4.78c0,2.41-1.96,4.37-4.37,4.37M8.74,5.38c-1.87,0-3.4,1.52-3.4,3.4v4.78c0,1.87,1.52,3.4,3.4,3.4h5.43c1.87,0,3.4-1.52,3.4-3.4v-4.78c0-1.87-1.52-3.4-3.4-3.4h-5.43Z"/><path class="cls-1" d="M11.46,15.06c-2.14,0-3.89-1.74-3.89-3.89s1.74-3.89,3.89-3.89,3.89,1.74,3.89,3.89-1.74,3.89-3.89,3.89m0-6.81c-1.61,0-2.92,1.31-2.92,2.92s1.31,2.92,2.92,2.92,2.92-1.31,2.92-2.92-1.31-2.92-2.92-2.92"/><path class="cls-1" d="M16.09,7.4c0,.45-.36,.81-.81,.81s-.81-.36-.81-.81,.36-.81,.81-.81,.81,.36,.81,.81"/></g></g></svg>